<svg xmlns="http://www.w3.org/2000/svg" xmlns:xlink="http://www.w3.org/1999/xlink" width="2000" zoomAndPan="magnify" viewBox="0 0 1500 1499.999933" height="2000" preserveAspectRatio="xMidYMid meet" version="1.0"><defs><g/></defs><g fill="#ffffff" fill-opacity="1"><g transform="translate(625.230442, 767.999914)"><g><path d="M 8.8125 -36.375 L 8.8125 0 L 4.21875 0 L 4.21875 -36.375 Z M 8.8125 -36.375 "/></g></g></g><g fill="#ffffff" fill-opacity="1"><g transform="translate(638.265513, 767.999914)"><g><path d="M 4.21875 0 L 4.21875 -36.375 L 16.796875 -36.375 C 19.566406 -36.375 21.867188 -35.875 23.703125 -34.875 C 25.546875 -33.875 26.921875 -32.507812 27.828125 -30.78125 C 28.742188 -29.0625 29.203125 -27.109375 29.203125 -24.921875 C 29.203125 -22.742188 28.738281 -20.785156 27.8125 -19.046875 C 26.894531 -17.304688 25.515625 -15.929688 23.671875 -14.921875 C 21.835938 -13.910156 19.535156 -13.40625 16.765625 -13.40625 L 7.5625 -13.40625 L 7.5625 -17.453125 L 16.625 -17.453125 C 18.5 -17.453125 20.023438 -17.769531 21.203125 -18.40625 C 22.378906 -19.039062 23.242188 -19.921875 23.796875 -21.046875 C 24.359375 -22.179688 24.640625 -23.472656 24.640625 -24.921875 C 24.640625 -26.367188 24.359375 -27.648438 23.796875 -28.765625 C 23.242188 -29.878906 22.375 -30.753906 21.1875 -31.390625 C 20 -32.023438 18.460938 -32.34375 16.578125 -32.34375 L 8.8125 -32.34375 L 8.8125 0 Z M 4.21875 0 "/></g></g></g><g fill="#ffffff" fill-opacity="1"><g transform="translate(683.619749, 767.999914)"><g><path d="M 19.3125 -17.390625 L 19.3125 -13.359375 L 3.34375 -13.359375 L 3.34375 -17.390625 Z M 19.3125 -17.390625 "/></g></g></g><g fill="#ffffff" fill-opacity="1"><g transform="translate(719.991015, 767.999914)"><g><path d="M 4.21875 0 L 4.21875 -36.375 L 10.671875 -36.375 L 19.703125 -13.3125 C 19.910156 -12.769531 20.148438 -12.097656 20.421875 -11.296875 C 20.691406 -10.503906 20.976562 -9.648438 21.28125 -8.734375 C 21.59375 -7.828125 21.882812 -6.925781 22.15625 -6.03125 C 22.4375 -5.132812 22.675781 -4.320312 22.875 -3.59375 L 21.84375 -3.59375 C 22.0625 -4.289062 22.304688 -5.078125 22.578125 -5.953125 C 22.859375 -6.835938 23.148438 -7.738281 23.453125 -8.65625 C 23.753906 -9.570312 24.046875 -10.441406 24.328125 -11.265625 C 24.609375 -12.085938 24.859375 -12.769531 25.078125 -13.3125 L 33.953125 -36.375 L 40.4375 -36.375 L 40.4375 0 L 35.90625 0 L 35.90625 -20.84375 C 35.90625 -21.59375 35.910156 -22.441406 35.921875 -23.390625 C 35.929688 -24.347656 35.945312 -25.335938 35.96875 -26.359375 C 36 -27.390625 36.023438 -28.4375 36.046875 -29.5 C 36.066406 -30.570312 36.085938 -31.601562 36.109375 -32.59375 L 36.546875 -32.59375 C 36.203125 -31.46875 35.832031 -30.332031 35.4375 -29.1875 C 35.050781 -28.050781 34.679688 -26.953125 34.328125 -25.890625 C 33.972656 -24.835938 33.632812 -23.878906 33.3125 -23.015625 C 33 -22.160156 32.726562 -21.4375 32.5 -20.84375 L 24.296875 0 L 20.359375 0 L 12.03125 -20.84375 C 11.800781 -21.414062 11.535156 -22.125 11.234375 -22.96875 C 10.941406 -23.820312 10.609375 -24.769531 10.234375 -25.8125 C 9.867188 -26.851562 9.488281 -27.945312 9.09375 -29.09375 C 8.695312 -30.25 8.296875 -31.414062 7.890625 -32.59375 L 8.40625 -32.59375 C 8.4375 -31.675781 8.460938 -30.703125 8.484375 -29.671875 C 8.503906 -28.640625 8.519531 -27.597656 8.53125 -26.546875 C 8.550781 -25.492188 8.570312 -24.476562 8.59375 -23.5 C 8.613281 -22.53125 8.625 -21.644531 8.625 -20.84375 L 8.625 0 Z M 4.21875 0 "/></g></g></g><g fill="#ffffff" fill-opacity="1"><g transform="translate(764.637354, 767.999914)"><g><path d="M 4.21875 0 L 4.21875 -36.375 L 26.703125 -36.375 L 26.703125 -32.328125 L 8.8125 -32.328125 L 8.8125 -20.453125 L 25.46875 -20.453125 L 25.46875 -16.375 L 8.8125 -16.375 L 8.8125 -4.046875 L 26.875 -4.046875 L 26.875 0 Z M 4.21875 0 "/></g></g></g><g fill="#ffffff" fill-opacity="1"><g transform="translate(794.442264, 767.999914)"><g><path d="M 1.21875 0 L 15.4375 -20.3125 L 15.4375 -16.921875 L 2.03125 -36.375 L 7.328125 -36.375 L 12.59375 -28.640625 C 13.332031 -27.578125 13.945312 -26.65625 14.4375 -25.875 C 14.9375 -25.09375 15.40625 -24.320312 15.84375 -23.5625 C 16.28125 -22.8125 16.757812 -21.941406 17.28125 -20.953125 L 16.5 -20.953125 C 17.019531 -21.921875 17.5 -22.785156 17.9375 -23.546875 C 18.382812 -24.304688 18.867188 -25.078125 19.390625 -25.859375 C 19.910156 -26.648438 20.523438 -27.578125 21.234375 -28.640625 L 26.609375 -36.375 L 31.8125 -36.375 L 18.40625 -17.109375 L 18.40625 -20.484375 L 32.46875 0 L 27.203125 0 L 20.796875 -9.25 C 20.160156 -10.207031 19.601562 -11.046875 19.125 -11.765625 C 18.644531 -12.492188 18.191406 -13.222656 17.765625 -13.953125 C 17.347656 -14.679688 16.882812 -15.523438 16.375 -16.484375 L 17.390625 -16.484375 C 16.898438 -15.566406 16.429688 -14.742188 15.984375 -14.015625 C 15.546875 -13.285156 15.082031 -12.550781 14.59375 -11.8125 C 14.113281 -11.082031 13.535156 -10.226562 12.859375 -9.25 L 6.421875 0 Z M 1.21875 0 "/></g></g></g><g fill="#ffffff" fill-opacity="1"><g transform="translate(841.846961, 767.999914)"><g><path d="M 16.453125 -8.453125 C 14.503906 -8.453125 12.671875 -8.820312 10.953125 -9.5625 C 9.234375 -10.300781 7.722656 -11.320312 6.421875 -12.625 C 5.117188 -13.925781 4.097656 -15.4375 3.359375 -17.15625 C 2.617188 -18.875 2.25 -20.707031 2.25 -22.65625 C 2.25 -24.613281 2.617188 -26.445312 3.359375 -28.15625 C 4.097656 -29.875 5.117188 -31.382812 6.421875 -32.6875 C 7.722656 -33.988281 9.234375 -35.007812 10.953125 -35.75 C 12.671875 -36.488281 14.503906 -36.859375 16.453125 -36.859375 C 18.421875 -36.859375 20.265625 -36.488281 21.984375 -35.75 C 23.703125 -35.007812 25.210938 -33.988281 26.515625 -32.6875 C 27.816406 -31.382812 28.832031 -29.875 29.5625 -28.15625 C 30.300781 -26.445312 30.671875 -24.613281 30.671875 -22.65625 C 30.671875 -20.707031 30.300781 -18.875 29.5625 -17.15625 C 28.832031 -15.4375 27.816406 -13.925781 26.515625 -12.625 C 25.210938 -11.320312 23.703125 -10.300781 21.984375 -9.5625 C 20.265625 -8.820312 18.421875 -8.453125 16.453125 -8.453125 Z M 16.453125 -11.890625 C 18.441406 -11.890625 20.25 -12.375 21.875 -13.34375 C 23.5 -14.3125 24.796875 -15.609375 25.765625 -17.234375 C 26.734375 -18.859375 27.21875 -20.664062 27.21875 -22.65625 C 27.21875 -24.644531 26.734375 -26.453125 25.765625 -28.078125 C 24.796875 -29.703125 23.5 -31 21.875 -31.96875 C 20.25 -32.9375 18.441406 -33.421875 16.453125 -33.421875 C 14.484375 -33.421875 12.679688 -32.9375 11.046875 -31.96875 C 9.410156 -31 8.109375 -29.703125 7.140625 -28.078125 C 6.171875 -26.453125 5.6875 -24.644531 5.6875 -22.65625 C 5.6875 -20.664062 6.171875 -18.859375 7.140625 -17.234375 C 8.109375 -15.609375 9.410156 -14.3125 11.046875 -13.34375 C 12.679688 -12.375 14.484375 -11.890625 16.453125 -11.890625 Z M 19.359375 -16.140625 L 16.1875 -22.296875 L 19.4375 -22.296875 L 22.65625 -16.140625 Z M 11.40625 -16.140625 L 11.40625 -29.21875 L 17.84375 -29.21875 C 18.507812 -29.21875 19.175781 -29.0625 19.84375 -28.75 C 20.507812 -28.445312 21.0625 -27.984375 21.5 -27.359375 C 21.945312 -26.734375 22.171875 -25.945312 22.171875 -25 C 22.171875 -24.050781 21.9375 -23.242188 21.46875 -22.578125 C 21.007812 -21.910156 20.429688 -21.398438 19.734375 -21.046875 C 19.046875 -20.703125 18.351562 -20.53125 17.65625 -20.53125 L 13.15625 -20.53125 L 13.15625 -22.828125 L 16.9375 -22.828125 C 17.414062 -22.828125 17.867188 -23.007812 18.296875 -23.375 C 18.734375 -23.738281 18.953125 -24.28125 18.953125 -25 C 18.953125 -25.726562 18.726562 -26.238281 18.28125 -26.53125 C 17.84375 -26.832031 17.414062 -26.984375 17 -26.984375 L 14.40625 -26.984375 L 14.40625 -16.140625 Z M 11.40625 -16.140625 "/></g></g></g></svg>
